<?xml version="1.0" encoding="UTF-8"?>
<svg version="1.1" xmlns="http://www.w3.org/2000/svg" viewBox="0 0 1254 1254" width="1254" height="1254">
<path d="M0 0 C413.82 0 827.64 0 1254 0 C1254 413.82 1254 827.64 1254 1254 C840.18 1254 426.36 1254 0 1254 C0 840.18 0 426.36 0 0 Z " fill="#F4ECE0" transform="translate(0,0)"/>
<path d="M0 0 C0.85207031 0.26651367 1.70414063 0.53302734 2.58203125 0.80761719 C56.58032148 17.70491707 105.13901296 49.47309469 132.9375 99.95092773 C144.87581171 122.97442271 150.11748681 147.23820308 150.25 173.0625 C150.2593457 174.31691895 150.26869141 175.57133789 150.27832031 176.86376953 C150.16264418 210.88589867 141.05121484 249.71764436 117 275 C116.28457031 275.79277344 115.56914063 276.58554687 114.83203125 277.40234375 C104.50640638 288.38588454 90.64582962 296.40659876 75.38818359 297.12255859 C61.02110051 297.52171143 48.34800554 297.2951788 35.1796875 291.015625 C32.98447834 289.99276769 30.77045292 289.15340849 28.5 288.3125 C16.15970544 283.37638217 4.81397614 276.33074402 -6.5 269.4375 C-16.09752723 263.60633737 -25.67433292 258.40488564 -36 254 C-37.00546875 253.53464844 -38.0109375 253.06929688 -39.046875 252.58984375 C-65.17584353 241.288028 -97.80357611 240.21435708 -125 248 C-125.76022461 248.21430664 -126.52044922 248.42861328 -127.30371094 248.64941406 C-159.59247898 258.0130205 -189.77561768 277.97253478 -210 305 C-210.39106934 305.5161084 -210.78213867 306.0322168 -211.18505859 306.56396484 C-238.06585737 342.216953 -252.51978793 384.24404536 -252.3125 428.875 C-252.31026428 430.07373749 -252.31026428 430.07373749 -252.3079834 431.29669189 C-252.24571475 449.99355004 -251.32957497 468.83987462 -245.67480469 486.78662109 C-244.84858148 489.49665713 -244.10207905 492.22506619 -243.3515625 494.95703125 C-234.87159728 525.35993814 -221.54051616 553.69074835 -207.6328125 581.9296875 C-207.15908707 582.8915799 -206.68536163 583.85347229 -206.19728088 584.84451294 C-205.71814743 585.81734222 -205.23901398 586.79017151 -204.74536133 587.79248047 C-187.55712097 622.6988988 -187.55712097 622.6988988 -181 640 C-180.71318359 640.73814941 -180.42636719 641.47629883 -180.13085938 642.23681641 C-175.38008411 654.52819573 -172.11018041 667.20828623 -169 680 C-168.82017578 680.70125 -168.64035156 681.4025 -168.45507812 682.125 C-165.16959895 695.62486773 -164.58650473 709.36217245 -164.625 723.1875 C-164.6262085 723.99637665 -164.62741699 724.8052533 -164.62866211 725.63864136 C-164.76272686 758.80536178 -174.35416565 786.35416565 -198.0234375 810.0234375 C-209.15594445 820.4043828 -222.91924903 825.88395026 -237 831 C-237.74209717 831.27102539 -238.48419434 831.54205078 -239.2487793 831.82128906 C-244.85423381 833.78508165 -250.4774375 835.04682881 -256.3125 836.125 C-257.17294922 836.29386719 -258.03339844 836.46273437 -258.91992188 836.63671875 C-312.13241694 846.67084922 -370.1802764 833.93872306 -414.74951172 803.58691406 C-421.13380165 799.08508237 -427.12774795 794.14568022 -433 789 C-433.64453125 788.43522949 -434.2890625 787.87045898 -434.953125 787.28857422 C-459.39821638 765.63633453 -476.92162224 739.09749605 -491.08691406 709.85253906 C-491.97467378 708.05138379 -492.90477906 706.27129447 -493.8359375 704.4921875 C-497.7974316 696.89788222 -500.83103725 689.31426558 -503.54296875 681.203125 C-504.57530072 678.13461226 -505.73839894 675.14681627 -506.96875 672.15234375 C-517.30330733 646.58316035 -522.2414958 618.48623703 -526.3125 591.3125 C-526.43569611 590.49394531 -526.55889221 589.67539062 -526.68582153 588.83203125 C-527.52033803 583.22902022 -528.28108035 577.6189322 -529 572 C-529.10064758 571.24157806 -529.20129517 570.48315613 -529.30499268 569.70175171 C-531.29055963 554.38938738 -531.3065475 539.1111284 -531.25390625 523.69006348 C-531.24742912 520.36952385 -531.26281902 517.04903792 -531.2734375 513.72851562 C-531.28236089 498.36994141 -530.63578261 483.26822292 -529 468 C-528.84040013 466.40598233 -528.68214931 464.81182888 -528.52539062 463.2175293 C-524.62885803 424.06825472 -517.29902527 385.90427504 -505.5 348.3125 C-505.12230469 347.09755859 -504.74460937 345.88261719 -504.35546875 344.63085938 C-497.71393135 323.34826961 -497.71393135 323.34826961 -495.125 317.8125 C-493.11052028 313.47423068 -491.56145569 309.01529843 -490 304.5 C-486.82692075 295.36978374 -483.00790922 286.87397678 -478.5625 278.28515625 C-477.28840983 275.60638168 -476.1705598 272.95358185 -475.08984375 270.1953125 C-473.14672582 265.27222598 -470.94232214 260.53804243 -468.5625 255.8125 C-468.13348389 254.96010742 -467.70446777 254.10771484 -467.26245117 253.22949219 C-451.40006994 222.07497371 -432.55702236 192.51120823 -411 165 C-409.8035281 163.41452738 -408.60707353 161.82904095 -407.41210938 160.24243164 C-394.06570498 142.61485407 -378.70842812 126.64052023 -363.125 111 C-362.24521484 110.11554199 -361.36542969 109.23108398 -360.45898438 108.31982422 C-355.46610693 103.33924916 -350.36659636 98.57370666 -345 94 C-343.87028014 93.01525553 -342.7413447 92.02961027 -341.61328125 91.04296875 C-333.9556553 84.39925647 -326.1449286 78.03908168 -318 72 C-316.98679687 71.24783203 -316.98679687 71.24783203 -315.953125 70.48046875 C-279.80536634 43.75973348 -240.57700735 21.66180236 -198 7 C-196.32804565 6.42113037 -196.32804565 6.42113037 -194.62231445 5.83056641 C-174.54834559 -1.00373539 -154.03345289 -5.87207665 -133.0625 -8.9375 C-132.03459854 -9.08989136 -132.03459854 -9.08989136 -130.9859314 -9.24536133 C-87.98102745 -15.52040477 -41.45374624 -13.49859384 0 0 Z " fill="#8F4150" transform="translate(810,214)"/>
<path d="M0 0 C1.64548828 0.433125 1.64548828 0.433125 3.32421875 0.875 C12.01912489 3.47534576 20.02168403 7.74306043 28 12 C28.61166016 12.32516602 29.22332031 12.65033203 29.85351562 12.98535156 C47.60358587 22.51995214 62.67678021 35.0279816 77.375 48.6875 C78.02903809 49.29295654 78.68307617 49.89841309 79.35693359 50.5222168 C83.87830503 54.77345788 87.97716408 59.27831271 92 64 C92.85722656 64.97582031 93.71445312 65.95164062 94.59765625 66.95703125 C116.53550994 92.3715654 136.79164646 122.55806105 148.05859375 154.36328125 C148.9422505 156.83825348 149.9541302 159.18140138 151.0625 161.5625 C153.01409493 165.84190093 154.46264234 170.23186922 155.875 174.71484375 C156.81309956 177.45422474 157.84316437 180.09674975 158.94140625 182.7734375 C160.91872865 187.67190833 162.50808155 192.6047941 163.9375 197.6875 C164.31926392 199.03980713 164.31926392 199.03980713 164.70874023 200.41943359 C167.59253118 210.85284365 169.85703161 221.393577 172 232 C172.21543457 233.03334473 172.43086914 234.06668945 172.65283203 235.13134766 C176.22206338 252.34717659 178.24523643 269.41057147 179.63525391 286.91235352 C179.86972308 289.70880157 180.17083957 292.48844126 180.51708984 295.27319336 C182.28719575 309.93318278 182.30722176 324.57852007 182.26074219 339.3215332 C182.24948767 342.92197395 182.25604833 346.52211438 182.2676115 350.12254429 C182.33953487 376.50707076 181.75514993 403.0734429 177.6875 429.1875 C177.46866071 430.65428356 177.24991288 432.12108076 177.03125 433.58789062 C175.38989127 444.3820698 173.31559321 455.0367947 170.60302734 465.61474609 C170.00968321 467.96169839 169.4634424 470.31552313 168.92578125 472.67578125 C162.75574143 498.90327728 151.12020093 530.86694395 127.29882812 546.08691406 C109.49459111 556.65638307 90.57322477 561.1295668 70.3125 564.1875 C69.20890137 564.35451416 68.10530273 564.52152832 66.96826172 564.69360352 C52.48485676 566.78030497 38.10446597 567.20575896 23.5 567.1875 C22.6042627 567.18689575 21.70852539 567.1862915 20.78564453 567.18566895 C-64.14092819 567.03113364 -64.14092819 567.03113364 -88.8828125 543.27734375 C-99.83276012 531.49907906 -103.38810585 515.67510735 -103.3125 500.0625 C-103.31121094 498.92425781 -103.30992187 497.78601563 -103.30859375 496.61328125 C-103.22263826 488.80852264 -102.54283483 481.22871267 -101.5 473.5 C-97.4793701 442.76383808 -99.65092979 411.86277921 -108 382 C-108.34237241 380.60150704 -108.67937998 379.20169252 -109.01171875 377.80078125 C-116.26746499 347.73751063 -129.35231129 319.78916786 -142.47109985 291.93838501 C-170.24303777 232.97589898 -170.24303777 232.97589898 -176.52978516 203.22119141 C-176.83186912 201.79421328 -177.1432708 200.36915841 -177.46630859 198.94677734 C-182.53035585 176.19962452 -181.95070946 149.7280122 -177 127 C-176.86609863 126.33693848 -176.73219727 125.67387695 -176.59423828 124.99072266 C-168.07656985 83.31093178 -143.37487047 43.52587527 -107.8190918 19.75024414 C-105.88773929 18.48658311 -103.94668356 17.23987973 -102 16 C-100.98292969 15.34257812 -99.96585938 14.68515625 -98.91796875 14.0078125 C-69.3242793 -4.20991698 -33.48669359 -9.18567152 0 0 Z " fill="#BD6B45" transform="translate(765,490)"/>
</svg>
